<svg width="151" height="24" viewBox="0 0 151 24" fill="none" xmlns="http://www.w3.org/2000/svg">
<path d="M0 23.5326V20.0672H1.65969V3.82001H0V0.3546H8.45651V3.82001H7.06553V20.0672H8.15618V23.5326H0ZM9.75264 23.5326V20.0672H10.8749L7.60295 11.3794L11.4598 3.82001H10.0372V0.3546H16.6759V3.82001H15.3165L12.2659 9.73539L16.2175 20.0672H17.6085V23.5326H9.75264Z" fill="#077929"/>
<path d="M25.3695 2.80457C25.3695 3.57824 25.1008 4.23909 24.5634 4.78711C24.026 5.33512 23.3779 5.60913 22.6192 5.60913C21.8605 5.60913 21.2124 5.33512 20.675 4.78711C20.1375 4.23909 19.8688 3.57824 19.8688 2.80457C19.8688 2.03089 20.1375 1.37005 20.675 0.822028C21.2124 0.274009 21.8605 0 22.6192 0C23.3674 0 24.0102 0.274009 24.5476 0.822028C25.0955 1.37005 25.3695 2.03089 25.3695 2.80457ZM18.4937 23.5326V20.0672H20.2166V10.8314H18.4937V7.3499H24.9427V20.0672H26.4602V23.5326H18.4937Z" fill="#077929"/>
<path d="M36.687 17.1336L40.3383 18.5198C39.7377 22.1733 37.8303 24 34.6163 24C32.6774 24 31.1494 23.2263 30.0324 21.679C28.926 20.1316 28.3728 17.9987 28.3728 15.2801C28.3728 12.8301 28.8522 10.8529 29.8112 9.34856C30.7806 7.84419 32.0452 7.09201 33.6047 7.09201C35.1011 7.09201 36.1074 7.7636 36.6238 9.10678H36.687V7.3499H40.0854V13.8939H36.687C36.6132 12.7226 36.4288 11.8576 36.1338 11.2989C35.8493 10.7401 35.4172 10.4607 34.8376 10.4607C34.2265 10.4607 33.8155 10.8314 33.6047 11.5729C33.394 12.3036 33.2886 13.5393 33.2886 15.2801C33.2886 17.182 33.3887 18.5359 33.5889 19.3418C33.7997 20.137 34.2844 20.5346 35.0431 20.5346C35.57 20.5346 35.9546 20.2606 36.197 19.7126C36.4394 19.1645 36.6027 18.3049 36.687 17.1336Z" fill="#077929"/>
<path d="M41.6977 23.5326V20.0672H43.1519V3.82001H41.6977V0.3546H47.878V20.0672H48.8264V23.5326H41.6977ZM51.7032 23.5326L48.0519 15.3768V14.9899L50.7232 10.5252H49.601V7.3499H55.3229V10.8314H54.3587L52.2248 14.3291L54.8487 20.0672H55.5284V23.5326H51.7032Z" fill="#077929"/>
<path d="M64.2536 24C62.2936 24 60.6866 23.2048 59.4326 21.6145C58.1786 20.0134 57.5517 17.9557 57.5517 15.4412C57.5517 12.9375 58.1734 10.8905 59.4168 9.3002C60.6603 7.69913 62.2725 6.89859 64.2536 6.89859C66.1926 6.89859 67.7838 7.69913 69.0272 9.3002C70.2812 10.8905 70.9082 12.9375 70.9082 15.4412C70.9082 17.9557 70.2812 20.0134 69.0272 21.6145C67.7838 23.2048 66.1926 24 64.2536 24ZM64.2536 10.5897C63.6214 10.5897 63.163 10.9819 62.8785 11.7663C62.6045 12.5507 62.4675 13.7757 62.4675 15.4412C62.4675 17.1068 62.6045 18.3318 62.8785 19.1162C63.163 19.9006 63.6214 20.2928 64.2536 20.2928C65.4128 20.2928 65.9924 18.6756 65.9924 15.4412C65.9924 12.2069 65.4128 10.5897 64.2536 10.5897Z" fill="#077929"/>
<path d="M73.295 23.5326V20.0672H74.5279V10.8314H73.3266V7.3499H74.5279V5.96373C74.5279 4.08328 75.0706 2.62189 76.156 1.57958C77.2414 0.526528 78.6271 0 80.3131 0C81.2826 0 82.1677 0.204164 82.9686 0.612492C83.7695 1.01007 84.3648 1.56347 84.7547 2.27267L80.9928 4.02955C80.8663 3.546 80.5765 3.30423 80.1234 3.30423C79.7967 3.30423 79.5702 3.4278 79.4437 3.67495C79.3173 3.91135 79.2541 4.30356 79.2541 4.85158V7.3499H80.9928V10.8314H79.2541V20.0672H81.056V23.5326H73.295Z" fill="#077929"/>
<path d="M83.0634 23.5326V20.0672H84.2963V10.8314H83.095V7.3499H84.2963V5.96373C84.2963 4.08328 84.839 2.62189 85.9244 1.57958C87.0098 0.526528 88.3955 0 90.0815 0C91.051 0 91.9362 0.204164 92.737 0.612492C93.5379 1.01007 94.1333 1.56347 94.5232 2.27267L90.7612 4.02955C90.6348 3.546 90.345 3.30423 89.8919 3.30423C89.5652 3.30423 89.3386 3.4278 89.2122 3.67495C89.0857 3.91135 89.0225 4.30356 89.0225 4.85158V7.3499H90.7612V10.8314H89.0225V20.0672H90.8244V23.5326H83.0634Z" fill="#077929"/>
<path d="M103.059 23.5326V20.0672H104.718V3.82001H103.059V0.3546H111.515V3.82001H110.124V20.0672H111.215V23.5326H103.059ZM112.811 23.5326V20.0672H113.934L110.662 11.3794L114.518 3.82001H113.096V0.3546H119.735V3.82001H118.375L115.325 9.73539L119.276 20.0672H120.667V23.5326H112.811Z" fill="#077929"/>
<path d="M128.428 2.80457C128.428 3.57824 128.16 4.23909 127.622 4.78711C127.085 5.33512 126.437 5.60913 125.678 5.60913C124.919 5.60913 124.271 5.33512 123.734 4.78711C123.196 4.23909 122.928 3.57824 122.928 2.80457C122.928 2.03089 123.196 1.37005 123.734 0.822028C124.271 0.274009 124.919 0 125.678 0C126.426 0 127.069 0.274009 127.606 0.822028C128.154 1.37005 128.428 2.03089 128.428 2.80457ZM121.552 23.5326V20.0672H123.275V10.8314H121.552V7.3499H128.001V20.0672H129.519V23.5326H121.552Z" fill="#077929"/>
<path d="M139.098 19.8737V23.4681C138.107 23.8227 137.148 24 136.221 24C133.713 24 132.459 22.458 132.459 19.3741V10.8314H131.036V7.3499H132.459V5.31901L137.185 1.54735V7.3499H139.098V10.8314H137.185V18.0524C137.185 18.7723 137.275 19.2827 137.454 19.5836C137.633 19.8845 137.944 20.0349 138.386 20.0349C138.608 20.0349 138.845 19.9812 139.098 19.8737Z" fill="#077929"/>
<path d="M141.2 23.5326V19.1484H144.598C144.693 20.3089 145.146 20.8892 145.958 20.8892C146.274 20.8892 146.521 20.7871 146.701 20.5829C146.89 20.3788 146.985 20.1101 146.985 19.777C146.985 19.4762 146.869 19.1645 146.637 18.8422C146.416 18.5198 145.821 18.0255 144.851 17.3593C143.207 16.2203 142.148 15.2102 141.674 14.3291C141.2 13.448 140.963 12.5453 140.963 11.6212C140.963 10.2673 141.3 9.17663 141.974 8.34923C142.659 7.51108 143.555 7.09201 144.662 7.09201C145.631 7.09201 146.458 7.53257 147.143 8.4137H147.222V7.3499H150.621V11.5567H147.222C147.064 10.4285 146.622 9.86434 145.894 9.86434C145.568 9.86434 145.304 9.97179 145.104 10.1867C144.914 10.3909 144.82 10.6595 144.82 10.9926C144.82 11.315 144.941 11.6481 145.183 11.9919C145.426 12.3251 146.047 12.8247 147.048 13.4909C147.87 14.0282 148.545 14.5279 149.072 14.9899C149.598 15.4412 150.052 16.0269 150.431 16.7468C150.81 17.4668 151 18.321 151 19.3096C151 20.6635 150.663 21.7488 149.988 22.5655C149.314 23.3821 148.424 23.7905 147.317 23.7905C146.632 23.7905 146.137 23.7045 145.831 23.5326C145.526 23.3714 145.231 23.1242 144.946 22.7911C144.82 22.6407 144.725 22.5332 144.662 22.4688H144.598V23.5326H141.2Z" fill="#077929"/>
</svg>
