<svg width="241" height="240" viewBox="0 0 241 240" fill="none" xmlns="http://www.w3.org/2000/svg">
<g clip-path="url(#clip0_187_16892)">
<path d="M120.498 85.7995C142.637 85.7995 160.584 67.8524 160.584 45.7135C160.584 23.5746 142.637 5.62744 120.498 5.62744C98.3592 5.62744 80.4121 23.5746 80.4121 45.7135C80.4121 67.8524 98.3592 85.7995 120.498 85.7995Z" fill="#6AC8B7"/>
<path d="M128.517 73.7754C106.378 73.7754 88.4311 55.8284 88.4311 33.6894C88.4311 28.07 89.5921 22.723 91.6795 17.8682C84.7097 25.0803 80.4136 34.8931 80.4136 45.7151C80.4136 67.8542 98.3606 85.8012 120.5 85.8012C137.019 85.8012 151.2 75.806 157.337 61.5359C150.049 69.0781 139.834 73.7754 128.517 73.7754Z" fill="#2DB59F"/>
<path d="M114.487 63.7534C112.949 63.7534 111.41 63.1661 110.236 61.9923L98.2102 49.9666C95.8622 47.6181 95.8622 43.8114 98.2102 41.463C100.559 39.115 104.365 39.115 106.714 41.463L114.488 49.2372L134.288 29.4372C136.636 27.0893 140.443 27.0893 142.792 29.4372C145.139 31.7857 145.139 35.5924 142.792 37.9408L118.74 61.9923C117.565 63.1666 116.026 63.7534 114.487 63.7534Z" fill="white"/>
<path d="M164.593 101.834H28.3003V234.118H164.593V101.834Z" fill="#FDD042"/>
<path d="M40.3261 101.834H28.3003V234.118H40.3261V101.834Z" fill="#F2C127"/>
<path d="M140.543 153.948H4.25L28.3015 101.836H164.595L140.543 153.948Z" fill="#FDDD85"/>
<path d="M212.697 101.834H164.593V234.118H212.697V101.834Z" fill="#FDDD85"/>
<path d="M236.75 153.948H188.647L164.595 101.836H212.698L236.75 153.948Z" fill="#FDE5A2"/>
<path d="M200.67 206.059H176.619V218.084H200.67V206.059Z" fill="#74757B"/>
<path d="M148.558 169.98H44.3345V186.015H148.558V169.98Z" fill="#E1A527"/>
<path d="M120.5 89.559C144.676 89.559 164.344 69.8908 164.344 45.7146C164.344 39.619 163.116 33.7184 160.694 28.1754C159.863 26.2732 157.647 25.4042 155.746 26.2367C153.844 27.0673 152.977 29.2826 153.807 31.1848C155.812 35.7724 156.828 40.661 156.828 45.7146C156.828 65.7461 140.532 82.0426 120.5 82.0426C100.469 82.0426 84.1721 65.7461 84.1721 45.7146C84.1721 25.6831 100.469 9.38653 120.5 9.38653C130.069 9.38653 139.1 13.0751 145.931 19.7731C147.413 21.2257 149.792 21.2032 151.245 19.721C152.699 18.2389 152.675 15.86 151.193 14.4068C142.949 6.32279 132.048 1.87061 120.5 1.87061C96.3235 1.87061 76.6553 21.5389 76.6553 45.7151C76.6553 69.8913 96.3245 89.559 120.5 89.559Z" fill="black"/>
<path d="M131.63 26.7799L114.488 43.923L109.371 38.8061C105.561 34.9966 99.3621 34.997 95.5526 38.8066C91.7435 42.6161 91.7435 48.8153 95.5526 52.6248L107.578 64.6506C111.345 68.4165 117.629 68.416 121.397 64.6506L145.448 40.5986C149.257 36.7891 149.257 30.5899 145.448 26.7803C141.639 22.9717 135.44 22.9717 131.63 26.7799ZM140.133 35.2839L116.082 59.3354C115.213 60.2045 113.762 60.205 112.893 59.3354L100.867 47.3101C99.9879 46.4308 99.9879 45.0001 100.867 44.1212C101.734 43.2545 103.189 43.254 104.056 44.1212L111.83 51.8954C113.298 53.3626 115.678 53.3626 117.145 51.8954L136.944 32.0955C137.823 31.2166 139.254 31.2166 140.133 32.095C141.013 32.9744 141.013 34.405 140.133 35.2839Z" fill="black"/>
<path d="M240.162 152.499L216.111 100.449C215.496 99.1185 214.164 98.3286 212.698 98.3286H28.3017C26.8359 98.3286 25.5038 99.0556 24.8892 100.386L0.837717 152.561C-0.292906 155.01 1.55959 157.957 4.25021 157.957H24.2935V234.121C24.2935 236.197 26.2266 238.129 28.3022 238.129H212.699C214.774 238.129 216.206 236.197 216.206 234.121V157.957H236.751C239.44 157.956 241.293 154.948 240.162 152.499ZM31.8094 157.956H88.431C90.5066 157.956 92.1889 156.274 92.1889 154.198C92.1889 152.122 90.5061 150.44 88.431 150.44H10.1236L30.7064 105.845H158.721L138.139 150.44H104.465C102.39 150.44 100.708 152.123 100.708 154.198C100.708 156.274 102.39 157.956 104.465 157.956H140.543C142.009 157.956 143.216 156.979 143.83 155.648L160.586 118.946V230.612H31.8094V157.956ZM208.69 230.612H168.103V118.946L185.11 155.648C185.724 156.979 187.181 157.957 188.647 157.957H208.69V230.612H208.69ZM191.051 150.44L170.469 105.845H210.294L230.876 150.44H191.051Z" fill="black"/>
<path d="M44.0856 202.302C42.01 202.302 40.3276 203.984 40.3276 206.06V218.085C40.3276 220.162 42.0104 221.843 44.0856 221.843C46.1612 221.843 47.8436 220.161 47.8436 218.085V206.06C47.8436 203.984 46.1607 202.302 44.0856 202.302Z" fill="black"/>
<path d="M56.1115 202.302C54.0359 202.302 52.3535 203.984 52.3535 206.06V218.085C52.3535 220.162 54.0363 221.843 56.1115 221.843C58.1871 221.843 59.8694 220.161 59.8694 218.085V206.06C59.8694 203.984 58.1871 202.302 56.1115 202.302Z" fill="black"/>
<path d="M76.1549 202.302C74.0793 202.302 72.397 203.984 72.397 206.06V218.085C72.397 220.162 74.0798 221.843 76.1549 221.843C78.2301 221.843 79.9129 220.161 79.9129 218.085V206.06C79.9129 203.984 78.2301 202.302 76.1549 202.302Z" fill="black"/>
<path d="M88.1803 202.302C86.1047 202.302 84.4224 203.984 84.4224 206.06V218.085C84.4224 220.162 86.1052 221.843 88.1803 221.843C90.2555 221.843 91.9383 220.161 91.9383 218.085V206.06C91.9383 203.984 90.2559 202.302 88.1803 202.302Z" fill="black"/>
<path d="M100.206 202.302C98.1306 202.302 96.4482 203.984 96.4482 206.06V218.085C96.4482 220.162 98.1311 221.843 100.206 221.843C102.281 221.843 103.964 220.161 103.964 218.085V206.06C103.964 203.984 102.282 202.302 100.206 202.302Z" fill="black"/>
<path d="M116.241 202.302C114.165 202.302 112.483 203.984 112.483 206.06V218.085C112.483 220.162 114.166 221.843 116.241 221.843C118.316 221.843 119.999 220.161 119.999 218.085V206.06C119.999 203.984 118.316 202.302 116.241 202.302Z" fill="black"/>
<path d="M128.266 202.302C126.191 202.302 124.508 203.984 124.508 206.06V218.085C124.508 220.162 126.191 221.843 128.266 221.843C130.342 221.843 132.024 220.161 132.024 218.085V206.06C132.025 203.984 130.342 202.302 128.266 202.302Z" fill="black"/>
<path d="M148.31 202.302C146.234 202.302 144.552 203.984 144.552 206.06V218.085C144.552 220.162 146.235 221.843 148.31 221.843C150.385 221.843 152.068 220.161 152.068 218.085V206.06C152.068 203.984 150.385 202.302 148.31 202.302Z" fill="black"/>
<path d="M204.18 206.31C204.18 204.235 202.497 202.552 200.422 202.552H176.37C174.295 202.552 172.612 204.235 172.612 206.31V218.336C172.612 220.412 174.295 222.094 176.37 222.094H200.422C202.497 222.094 204.18 220.411 204.18 218.336V206.31ZM196.663 214.578H180.128V210.068H196.663V214.578Z" fill="black"/>
<path d="M152.068 170.233C152.068 168.157 150.385 166.475 148.31 166.475H44.0856C42.01 166.475 40.3276 168.157 40.3276 170.233V186.267C40.3276 188.343 42.0104 190.025 44.0856 190.025H148.31C150.385 190.025 152.068 188.342 152.068 186.267V170.233ZM144.552 182.509H47.8436V173.991H144.552V182.509Z" fill="black"/>
<path d="M185.989 167.325L173.964 179.35C172.496 180.819 172.496 183.198 173.964 184.666C175.431 186.133 177.685 186.133 179.153 184.666L184.638 179.055V190.025C184.638 192.101 186.321 193.783 188.396 193.783C190.471 193.783 192.154 192.101 192.154 190.025V179.055L197.889 184.666C199.418 186.193 202.061 186.091 203.467 184.45C204.726 182.979 204.667 180.718 203.298 179.35L191.288 167.324C189.821 165.858 187.457 165.858 185.989 167.325Z" fill="black"/>
</g>
<defs>
<clipPath id="clip0_187_16892">
<rect width="240" height="240" fill="white" transform="translate(0.5)"/>
</clipPath>
</defs>
</svg>
